<svg width="16" height="17" viewBox="0 0 16 17" fill="none" xmlns="http://www.w3.org/2000/svg">
<path fill-rule="evenodd" clip-rule="evenodd" d="M7.99961 14.9C11.5342 14.9 14.3996 12.0346 14.3996 8.49998C14.3996 4.96535 11.5342 2.09998 7.99961 2.09998C4.46499 2.09998 1.59961 4.96535 1.59961 8.49998C1.59961 12.0346 4.46499 14.9 7.99961 14.9ZM10.9653 7.46566C11.2777 7.15324 11.2777 6.64671 10.9653 6.33429C10.6529 6.02187 10.1463 6.02187 9.83392 6.33429L7.19961 8.9686L6.16529 7.93429C5.85288 7.62187 5.34634 7.62187 5.03392 7.93429C4.7215 8.24671 4.7215 8.75324 5.03392 9.06566L6.63392 10.6657C6.94634 10.9781 7.45288 10.9781 7.76529 10.6657L10.9653 7.46566Z" fill="#00AC11"/>
</svg>
