<svg width="24" height="24" viewBox="0 0 24 24" fill="none" xmlns="http://www.w3.org/2000/svg">
<path fill-rule="evenodd" clip-rule="evenodd" d="M5.53033 17.9047C5.23744 17.6118 5.23744 17.137 5.53033 16.8441L16.844 5.53034C17.1369 5.23745 17.6118 5.23745 17.9047 5.53034C18.1976 5.82323 18.1976 6.29811 17.9047 6.591L6.59099 17.9047C6.2981 18.1976 5.82322 18.1976 5.53033 17.9047Z" fill="black"/>
<path fill-rule="evenodd" clip-rule="evenodd" d="M5.53022 5.53033C5.82311 5.23744 6.29798 5.23744 6.59088 5.53033L17.9046 16.844C18.1975 17.1369 18.1975 17.6118 17.9046 17.9047C17.6117 18.1976 17.1368 18.1976 16.8439 17.9047L5.53022 6.59099C5.23732 6.2981 5.23732 5.82322 5.53022 5.53033Z" fill="black"/>
</svg>
