<svg width="16" height="16" viewBox="0 0 16 16" fill="none" xmlns="http://www.w3.org/2000/svg">
<path fill-rule="evenodd" clip-rule="evenodd" d="M4.0566 2.99949C3.51916 2.99949 3.18391 3.48108 3.33744 3.93611C3.88796 5.56763 4.91384 8.022 6.44372 9.55188C7.97361 11.0818 10.428 12.1077 12.0595 12.6582C12.5145 12.8117 12.9961 12.4765 12.9961 11.939V10.2824C12.9961 10.2231 12.964 10.1685 12.9122 10.1397L11.4692 9.33738C11.422 9.31117 11.365 9.30993 11.3168 9.33404L9.77788 10.1035C9.68165 10.1516 9.57225 10.1667 9.46658 10.1464L9.55884 9.66541C9.46658 10.1464 9.46674 10.1465 9.46658 10.1464L9.46517 10.1462L9.46334 10.1458L9.45841 10.1448L9.44364 10.1417C9.43165 10.1392 9.41541 10.1356 9.39526 10.1308C9.35497 10.1213 9.29894 10.1071 9.22988 10.0872C9.09197 10.0474 8.90087 9.98438 8.67879 9.88974C8.23653 9.70128 7.65923 9.38205 7.13639 8.85923C6.61363 8.33646 6.29351 7.75833 6.10416 7.31545C6.00907 7.09302 5.94562 6.90157 5.90546 6.76342C5.88535 6.69425 5.87098 6.63812 5.86135 6.59779C5.85653 6.57761 5.85289 6.56136 5.85031 6.54937L5.8472 6.5346L5.8462 6.52969L5.84584 6.52787L5.84569 6.52711C5.84566 6.52696 5.84556 6.52647 6.32635 6.43295L5.84569 6.52711C5.82506 6.42107 5.83995 6.31053 5.88826 6.21391L6.65783 4.67474C6.68191 4.62658 6.68071 4.56958 6.65455 4.52246L5.85575 3.08354C5.85574 3.08353 5.85575 3.08354 5.85575 3.08354C5.82693 3.03166 5.77226 2.99949 5.71299 2.99949H4.0566ZM6.84587 6.48913C6.84594 6.4894 6.84602 6.48967 6.8461 6.48995C6.87692 6.59595 6.92756 6.74948 7.00489 6.93037C7.1604 7.29411 7.41847 7.75595 7.82906 8.16654C7.82906 8.16654 7.82905 8.16654 7.82906 8.16654L7.48272 8.51288M7.82906 8.16654C8.2396 8.57707 8.70036 8.83411 9.06282 8.98856C9.24309 9.06539 9.39601 9.11553 9.50153 9.14599C9.50173 9.14605 9.50133 9.14593 9.50153 9.14599L10.8787 8.4579C10.8787 8.45789 10.8787 8.4579 10.8787 8.4579C11.2162 8.2891 11.6153 8.29784 11.9451 8.48121L13.3882 9.28349C13.7508 9.48512 13.9757 9.86742 13.9757 10.2824V11.939C13.9757 13.0888 12.89 13.9723 11.7463 13.5863C10.0943 13.0289 7.45172 11.9453 5.75105 10.2446C4.05037 8.54388 2.96669 5.9013 2.40926 4.2493C2.02335 3.10557 2.90677 2.0199 4.0566 2.0199H5.71299C6.12817 2.0199 6.51066 2.24506 6.71218 2.60802L7.51102 4.04701C7.69403 4.37669 7.70269 4.77548 7.53401 5.11282C7.534 5.11283 7.53401 5.11281 7.53401 5.11282L6.84587 6.48913" fill="#706F6F"/>
</svg>
