<svg width="202" height="30" viewBox="0 0 202 30" fill="none" xmlns="http://www.w3.org/2000/svg">
<g clip-path="url(#clip0_150_1786)">
<path fill-rule="evenodd" clip-rule="evenodd" d="M22.5179 6.80853L22.7029 6.75575C13.109 9.73779 5.49732 14.831 5.33874 18.5783C5.18016 22.5896 13.6111 23.5396 24.1565 20.6895C34.7282 17.8394 43.4235 12.2712 43.5821 8.25997C43.6614 6.17518 41.4413 4.93486 37.8205 4.5918C42.2606 4.80291 45.0357 6.06962 45.0357 8.39191C45.0357 12.799 34.9397 19.2117 22.5179 22.7215C10.096 26.2577 0 25.5452 0 21.1381C0 16.7575 10.096 10.3448 22.5179 6.80853Z" fill="#706F6F"/>
<path fill-rule="evenodd" clip-rule="evenodd" d="M4.88965 29.9259L36.1028 0L33.2748 23.5132L28.1211 17.6283L4.88965 29.9259Z" fill="#E40134"/>
<path d="M70.963 11.2156C70.963 13.749 69.1393 16.1768 65.9942 16.1768H62.7963V21.1381H59.9419V6.22791H65.2806C69.1658 6.22791 70.963 8.31269 70.963 11.2156ZM68.1086 11.2156C68.1086 9.81691 66.9985 9.07799 65.6242 9.07799H62.7698V13.3267H65.6242C66.9985 13.3267 68.1086 12.4559 68.1086 11.2156Z" fill="#706F6F"/>
<path d="M88.4592 13.6962C88.4592 17.9978 84.9441 21.5076 80.6361 21.5076C76.3281 21.5076 72.813 17.9978 72.813 13.6962C72.813 9.39472 76.3281 5.88489 80.6361 5.88489C84.9705 5.88489 88.4592 9.39472 88.4592 13.6962ZM85.6313 13.6962C85.6313 10.9517 83.4112 8.73498 80.6625 8.73498C77.9139 8.73498 75.6938 10.9517 75.6938 13.6962C75.6938 16.4408 77.9139 18.6575 80.6625 18.6575C83.4112 18.6575 85.6313 16.4408 85.6313 13.6962Z" fill="#706F6F"/>
<path d="M102.15 17.1269L103.233 19.7131C101.965 20.8742 100.062 21.5076 98.3967 21.5076C94.0094 21.5076 90.4414 17.9978 90.4414 13.6962C90.4414 9.39472 94.0094 5.88489 98.3967 5.88489C100.062 5.88489 101.965 6.51824 103.233 7.653L102.15 10.2392C101.198 9.31555 99.8767 8.73498 98.4495 8.73498C95.5951 8.73498 93.2958 10.9517 93.2958 13.6962C93.2958 16.4408 95.5951 18.6575 98.4495 18.6575C99.9031 18.6575 101.198 18.0769 102.15 17.1269Z" fill="#706F6F"/>
<path d="M118.985 21.1381H115.391L109.735 14.6198V21.1381H106.88V6.22791H109.735V12.4031L115.021 6.22791H118.615L112.219 13.3531L118.985 21.1381Z" fill="#706F6F"/>
<path d="M135.239 13.6962C135.239 17.9978 131.724 21.5076 127.416 21.5076C123.108 21.5076 119.593 17.9978 119.593 13.6962C119.593 9.39472 123.108 5.88489 127.416 5.88489C131.724 5.88489 135.239 9.39472 135.239 13.6962ZM132.385 13.6962C132.385 10.9517 130.165 8.73498 127.416 8.73498C124.668 8.73498 122.448 10.9517 122.448 13.6962C122.448 16.4408 124.668 18.6575 127.416 18.6575C130.165 18.6575 132.385 16.4408 132.385 13.6962Z" fill="#706F6F"/>
<path d="M148.903 17.1269L149.987 19.7131C148.718 20.8742 146.815 21.5076 145.15 21.5076C140.763 21.5076 137.195 17.9978 137.195 13.6962C137.195 9.39472 140.763 5.88489 145.15 5.88489C146.815 5.88489 148.718 6.51824 149.987 7.653L148.903 10.2392C147.952 9.31555 146.63 8.73498 145.203 8.73498C142.349 8.73498 140.049 10.9517 140.049 13.6962C140.049 16.4408 142.349 18.6575 145.203 18.6575C146.657 18.6575 147.978 18.0769 148.903 17.1269Z" fill="#706F6F"/>
<path d="M170.073 21.1381H167.034L165.792 11.3739L161.88 21.1381H160.453L156.541 11.3739L155.299 21.1381H152.286L154.427 6.22791H157.281L161.193 15.8074L165.104 6.22791H167.959L170.073 21.1381Z" fill="#706F6F"/>
<path d="M187.226 13.6962C187.226 17.9978 183.711 21.5076 179.403 21.5076C175.095 21.5076 171.58 17.9978 171.58 13.6962C171.58 9.39472 175.095 5.88489 179.403 5.88489C183.737 5.88489 187.226 9.39472 187.226 13.6962ZM184.398 13.6962C184.398 10.9517 182.178 8.73498 179.429 8.73498C176.68 8.73498 174.46 10.9517 174.46 13.6962C174.46 16.4408 176.68 18.6575 179.429 18.6575C182.178 18.6575 184.398 16.4408 184.398 13.6962Z" fill="#706F6F"/>
<path d="M200.89 17.1269L201.974 19.7131C200.705 20.8742 198.802 21.5076 197.137 21.5076C192.75 21.5076 189.182 17.9978 189.182 13.6962C189.182 9.39472 192.75 5.88489 197.137 5.88489C198.802 5.88489 200.705 6.51824 201.974 7.653L200.89 10.2392C199.938 9.31555 198.617 8.73498 197.19 8.73498C194.335 8.73498 192.036 10.9517 192.036 13.6962C192.036 16.4408 194.335 18.6575 197.19 18.6575C198.67 18.6575 199.965 18.0769 200.89 17.1269Z" fill="#706F6F"/>
</g>
<defs>
<clipPath id="clip0_150_1786">
<rect width="202" height="29.9259" fill="white"/>
</clipPath>
</defs>
</svg>
