<svg width="16" height="16" viewBox="0 0 16 16" fill="none" xmlns="http://www.w3.org/2000/svg">
<path fill-rule="evenodd" clip-rule="evenodd" d="M0.833252 7.00004C0.833252 3.5943 3.59418 0.833374 6.99992 0.833374C10.4057 0.833374 13.1666 3.5943 13.1666 7.00004C13.1666 10.4058 10.4057 13.1667 6.99992 13.1667C3.59418 13.1667 0.833252 10.4058 0.833252 7.00004ZM6.99992 1.83337C4.14646 1.83337 1.83325 4.14658 1.83325 7.00004C1.83325 9.8535 4.14646 12.1667 6.99992 12.1667C9.85338 12.1667 12.1666 9.8535 12.1666 7.00004C12.1666 4.14658 9.85338 1.83337 6.99992 1.83337Z" fill="#1C1B1E"/>
<path fill-rule="evenodd" clip-rule="evenodd" d="M4.76072 4.42747C5.33325 3.85498 6.12559 3.5 6.99989 3.5C7.87419 3.5 8.66654 3.85498 9.23904 4.42748C9.43431 4.62274 9.43431 4.93932 9.23904 5.13459C9.04378 5.32985 8.7272 5.32985 8.53194 5.13459C8.13931 4.74196 7.59833 4.5 6.99989 4.5C6.40146 4.5 5.86047 4.74196 5.4678 5.1346C5.27253 5.32985 4.95595 5.32984 4.76069 5.13457C4.56544 4.93931 4.56545 4.62272 4.76072 4.42747Z" fill="#1C1B1E"/>
<path fill-rule="evenodd" clip-rule="evenodd" d="M10.7204 10.7204C10.9157 10.5252 11.2323 10.5252 11.4275 10.7204L14.256 13.5489C14.4512 13.7441 14.4512 14.0607 14.256 14.256C14.0607 14.4512 13.7441 14.4512 13.5489 14.256L10.7204 11.4275C10.5252 11.2323 10.5252 10.9157 10.7204 10.7204Z" fill="#1C1B1E"/>
</svg>
