<svg width="16" height="16" viewBox="0 0 16 16" fill="none" xmlns="http://www.w3.org/2000/svg">
<path fill-rule="evenodd" clip-rule="evenodd" d="M0.833252 3C0.833252 2.72386 1.05711 2.5 1.33325 2.5H14.6666C14.9427 2.5 15.1666 2.72386 15.1666 3V8C15.1666 8.27614 14.9427 8.5 14.6666 8.5C14.3904 8.5 14.1666 8.27614 14.1666 8V3.5H1.83325V12.5H7.99992C8.27606 12.5 8.49992 12.7239 8.49992 13C8.49992 13.2761 8.27606 13.5 7.99992 13.5H1.33325C1.05711 13.5 0.833252 13.2761 0.833252 13V3Z" fill="#706F6F"/>
<path fill-rule="evenodd" clip-rule="evenodd" d="M9.5 11.3334C9.5 11.0572 9.72386 10.8334 10 10.8334H14.6667C14.9428 10.8334 15.1667 11.0572 15.1667 11.3334C15.1667 11.6095 14.9428 11.8334 14.6667 11.8334H10C9.72386 11.8334 9.5 11.6095 9.5 11.3334Z" fill="#706F6F"/>
<path fill-rule="evenodd" clip-rule="evenodd" d="M12.6464 9.31307C12.8417 9.11781 13.1583 9.11781 13.3536 9.31307L15.0202 10.9797C15.2155 11.175 15.2155 11.4916 15.0202 11.6868L13.3536 13.3535C13.1583 13.5488 12.8417 13.5488 12.6464 13.3535C12.4512 13.1583 12.4512 12.8417 12.6464 12.6464L13.9596 11.3333L12.6464 10.0202C12.4512 9.82492 12.4512 9.50833 12.6464 9.31307Z" fill="#706F6F"/>
<path fill-rule="evenodd" clip-rule="evenodd" d="M0.933281 2.70003C1.09897 2.47912 1.41237 2.43434 1.63328 2.60003L7.99995 7.37503L14.3666 2.60003C14.5875 2.43434 14.9009 2.47912 15.0666 2.70003C15.2323 2.92094 15.1875 3.23434 14.9666 3.40003L8.29995 8.40003C8.12217 8.53336 7.87773 8.53336 7.69995 8.40003L1.03328 3.40003C0.812367 3.23434 0.767596 2.92094 0.933281 2.70003Z" fill="#706F6F"/>
</svg>
