<svg width="16" height="17" viewBox="0 0 16 17" fill="none" xmlns="http://www.w3.org/2000/svg">
<path fill-rule="evenodd" clip-rule="evenodd" d="M14.3996 8.49998C14.3996 12.0346 11.5342 14.9 7.99961 14.9C4.46499 14.9 1.59961 12.0346 1.59961 8.49998C1.59961 4.96535 4.46499 2.09998 7.99961 2.09998C11.5342 2.09998 14.3996 4.96535 14.3996 8.49998ZM8.79961 11.7C8.79961 12.1418 8.44144 12.5 7.99961 12.5C7.55778 12.5 7.19961 12.1418 7.19961 11.7C7.19961 11.2581 7.55778 10.9 7.99961 10.9C8.44144 10.9 8.79961 11.2581 8.79961 11.7ZM7.99961 4.49998C7.55778 4.49998 7.19961 4.85815 7.19961 5.29998V8.49998C7.19961 8.9418 7.55778 9.29998 7.99961 9.29998C8.44144 9.29998 8.79961 8.9418 8.79961 8.49998V5.29998C8.79961 4.85815 8.44144 4.49998 7.99961 4.49998Z" fill="#E30613"/>
</svg>
